<svg width="12" height="12" viewBox="0 0 12 12" fill="none" xmlns="http://www.w3.org/2000/svg">
<path d="M10.2297 8.75764C10.4099 8.96538 10.5 9.06924 10.5 9.25C10.5 9.43076 10.4099 9.53462 10.2297 9.74236C9.78058 10.26 8.96906 11 8 11C7.03094 11 6.21942 10.26 5.77035 9.74236C5.59012 9.53462 5.5 9.43076 5.5 9.25C5.5 9.06924 5.59012 8.96538 5.77035 8.75764C6.21942 8.24005 7.03094 7.5 8 7.5C8.96906 7.5 9.78058 8.24005 10.2297 8.75764Z" stroke="#0F172A" stroke-width="0.75" stroke-linejoin="round"/>
<path d="M10 6.50162V3.90995C10 3.06308 10 2.63964 9.86602 2.30145C9.65062 1.75777 9.1951 1.32892 8.61761 1.12614C8.25839 1 7.80863 1 6.90909 1C5.33491 1 4.54781 1 3.91918 1.22074C2.90857 1.57561 2.11141 2.3261 1.73447 3.27755C1.5 3.86938 1.5 4.61039 1.5 6.09241V7.36551C1.5 8.90065 1.5 9.66821 1.92385 10.2013C2.04529 10.354 2.18931 10.4896 2.35153 10.6039C2.80753 10.9253 3.4251 10.9878 4.5 11" stroke="#0F172A" stroke-width="0.75" stroke-linecap="round" stroke-linejoin="round"/>
<path d="M1.5 6C1.5 5.07953 2.24619 4.33333 3.16667 4.33333C3.49956 4.33333 3.89202 4.39166 4.21568 4.30494C4.50326 4.22788 4.72788 4.00326 4.80494 3.71568C4.89166 3.39202 4.83333 2.99956 4.83333 2.66667C4.83333 1.74619 5.57953 1 6.5 1" stroke="#0F172A" stroke-width="0.75" stroke-linecap="round" stroke-linejoin="round"/>
<path d="M7.99609 9.25H8.00058" stroke="#0F172A" stroke-linecap="round" stroke-linejoin="round"/>
</svg>
